solid OpenSCAD_Model
  facet normal 1 -0 0
    outer loop
      vertex 45 -12.5 5.1
      vertex 45 -10.6925 0
      vertex 45 -10.6925 5.1
    endloop
  endfacet
  facet normal 1 0 0
    outer loop
      vertex 45 -10.6925 0
      vertex 45 -12.5 5.1
      vertex 45 -12.5 0
    endloop
  endfacet
  facet normal 1 -0 0
    outer loop
      vertex 45 10.6925 5.1
      vertex 45 12.5 0
      vertex 45 12.5 5.1
    endloop
  endfacet
  facet normal 1 0 0
    outer loop
      vertex 45 12.5 0
      vertex 45 10.6925 5.1
      vertex 45 10.6925 0
    endloop
  endfacet
  facet normal 0.980785 -0.195091 0
    outer loop
      vertex 44.6194 -14.4134 5.1
      vertex 45 -12.5 0
      vertex 45 -12.5 5.1
    endloop
  endfacet
  facet normal 0.980785 -0.195091 0
    outer loop
      vertex 45 -12.5 0
      vertex 44.6194 -14.4134 5.1
      vertex 44.6194 -14.4134 0
    endloop
  endfacet
  facet normal -0.298275 0.95448 0
    outer loop
      vertex 38.0866 17.1194 0
      vertex 7 7.40484 5.1
      vertex 38.0866 17.1194 5.1
    endloop
  endfacet
  facet normal -0.298275 0.95448 0
    outer loop
      vertex 7 7.40484 5.1
      vertex 38.0866 17.1194 0
      vertex 7 7.40484 0
    endloop
  endfacet
  facet normal -0.55557 -0.83147 0
    outer loop
      vertex -3.53553 -3.53553 0
      vertex -1.91342 -4.6194 5.1
      vertex -3.53553 -3.53553 5.1
    endloop
  endfacet
  facet normal -0.55557 -0.83147 -0
    outer loop
      vertex -1.91342 -4.6194 5.1
      vertex -3.53553 -3.53553 0
      vertex -1.91342 -4.6194 0
    endloop
  endfacet
  facet normal 0.83147 0.55557 0
    outer loop
      vertex 44.6194 14.4134 5.1
      vertex 43.5355 16.0355 0
      vertex 43.5355 16.0355 5.1
    endloop
  endfacet
  facet normal 0.83147 0.55557 0
    outer loop
      vertex 43.5355 16.0355 0
      vertex 44.6194 14.4134 5.1
      vertex 44.6194 14.4134 0
    endloop
  endfacet
  facet normal 0.980785 0.195091 0
    outer loop
      vertex 45 12.5 5.1
      vertex 44.6194 14.4134 0
      vertex 44.6194 14.4134 5.1
    endloop
  endfacet
  facet normal 0.980785 0.195091 0
    outer loop
      vertex 44.6194 14.4134 0
      vertex 45 12.5 5.1
      vertex 45 12.5 0
    endloop
  endfacet
  facet normal -0.195091 0.980785 0
    outer loop
      vertex 40 17.5 0
      vertex 38.0866 17.1194 5.1
      vertex 40 17.5 5.1
    endloop
  endfacet
  facet normal -0.195091 0.980785 0
    outer loop
      vertex 38.0866 17.1194 5.1
      vertex 40 17.5 0
      vertex 38.0866 17.1194 0
    endloop
  endfacet
  facet normal -0.298275 -0.95448 9.95779e-008
    outer loop
      vertex -1.91342 -4.6194 5.1
      vertex 1.30902 -5.62641 3.45106
      vertex 38.0866 -17.1194 5.1
    endloop
  endfacet
  facet normal -0.298275 -0.95448 -2.61905e-007
    outer loop
      vertex -1.91342 -4.6194 5.1
      vertex 0.190983 -5.27702 3.08778
      vertex 1.30902 -5.62641 3.45106
    endloop
  endfacet
  facet normal -0.298275 -0.95448 0
    outer loop
      vertex -1.91342 -4.6194 0
      vertex 0.190983 -5.27702 3.08778
      vertex -1.91342 -4.6194 5.1
    endloop
  endfacet
  facet normal -0.298275 -0.95448 2.71994e-007
    outer loop
      vertex 0.190983 -5.27702 1.91221
      vertex -1.91342 -4.6194 0
      vertex 1.30902 -5.62641 1.54894
    endloop
  endfacet
  facet normal -0.298275 -0.95448 -0
    outer loop
      vertex 0.190983 -5.27702 3.08778
      vertex -1.91342 -4.6194 0
      vertex 0.190983 -5.27702 1.91221
    endloop
  endfacet
  facet normal -0.298275 -0.95448 -4.37824e-008
    outer loop
      vertex 2 -5.84234 2.5
      vertex 38.0866 -17.1194 5.1
      vertex 1.30902 -5.62641 3.45106
    endloop
  endfacet
  facet normal -0.298275 -0.95448 4.38662e-008
    outer loop
      vertex 38.0866 -17.1194 0
      vertex 2 -5.84234 2.5
      vertex 1.30902 -5.62641 1.54894
    endloop
  endfacet
  facet normal -0.298275 -0.95448 -1.06007e-007
    outer loop
      vertex 38.0866 -17.1194 0
      vertex 1.30902 -5.62641 1.54894
      vertex -1.91342 -4.6194 0
    endloop
  endfacet
  facet normal -0.298275 -0.95448 0
    outer loop
      vertex 2 -5.84234 2.5
      vertex 38.0866 -17.1194 0
      vertex 38.0866 -17.1194 5.1
    endloop
  endfacet
  facet normal -0.980785 0.19509 0
    outer loop
      vertex -4.75136 1.25 0
      vertex -4.6194 1.91342 5.1
      vertex -4.6194 1.91342 0
    endloop
  endfacet
  facet normal -0.980785 0.19509 0
    outer loop
      vertex -4.6194 1.91342 5.1
      vertex -4.75136 1.25 0
      vertex -4.75136 1.25 5.1
    endloop
  endfacet
  facet normal 0.83147 -0.55557 0
    outer loop
      vertex 43.5355 -16.0355 5.1
      vertex 44.6194 -14.4134 0
      vertex 44.6194 -14.4134 5.1
    endloop
  endfacet
  facet normal 0.83147 -0.55557 0
    outer loop
      vertex 44.6194 -14.4134 0
      vertex 43.5355 -16.0355 5.1
      vertex 43.5355 -16.0355 0
    endloop
  endfacet
  facet normal 0 0 -1
    outer loop
      vertex 7 1.25 0
      vertex -3.89337 3 0
      vertex 7 3 0
    endloop
  endfacet
  facet normal 0 0 -1
    outer loop
      vertex -4.75136 1.25 0
      vertex -3.89337 3 0
      vertex 7 1.25 0
    endloop
  endfacet
  facet normal 0 0 -1
    outer loop
      vertex -3.89337 3 0
      vertex -4.75136 1.25 0
      vertex -4.6194 1.91342 0
    endloop
  endfacet
  facet normal 0 0 -1
    outer loop
      vertex 41 -12.5 0
      vertex 45 -12.5 0
      vertex 44.6194 -14.4134 0
    endloop
  endfacet
  facet normal 0 0 -1
    outer loop
      vertex 45 -12.5 0
      vertex 44.5612 -10.8052 0
      vertex 45 -10.6925 0
    endloop
  endfacet
  facet normal 0 0 -1
    outer loop
      vertex 41 -12.5 0
      vertex 44.6194 -14.4134 0
      vertex 43.5355 -16.0355 0
    endloop
  endfacet
  facet normal 0 0 -1
    outer loop
      vertex 45 -12.5 0
      vertex 43.1907 -10.9783 0
      vertex 44.5612 -10.8052 0
    endloop
  endfacet
  facet normal 0 0 -1
    outer loop
      vertex 40.309 -13.4511 0
      vertex 43.5355 -16.0355 0
      vertex 41.9134 -17.1194 0
    endloop
  endfacet
  facet normal 0 0 -1
    outer loop
      vertex 45 -12.5 0
      vertex 41 -12.5 0
      vertex 43.1907 -10.9783 0
    endloop
  endfacet
  facet normal -0 0 -1
    outer loop
      vertex 43.1907 -10.9783 0
      vertex 41 -12.5 0
      vertex 41.8093 -10.9783 0
    endloop
  endfacet
  facet normal 0 0 -1
    outer loop
      vertex 43.5355 -16.0355 0
      vertex 40.309 -13.4511 0
      vertex 41 -12.5 0
    endloop
  endfacet
  facet normal 0 0 -1
    outer loop
      vertex 40 -17.5 0
      vertex 40.309 -13.4511 0
      vertex 41.9134 -17.1194 0
    endloop
  endfacet
  facet normal 0 0 -1
    outer loop
      vertex 38.0866 -17.1194 0
      vertex 40.309 -13.4511 0
      vertex 40 -17.5 0
    endloop
  endfacet
  facet normal 0 0 -1
    outer loop
      vertex 37.8164 -9.9531 0
      vertex 39.191 -11.9122 0
      vertex 39.191 -13.0878 0
    endloop
  endfacet
  facet normal -0 0 -1
    outer loop
      vertex 40.309 -13.4511 0
      vertex 38.0866 -17.1194 0
      vertex 39.191 -13.0878 0
    endloop
  endfacet
  facet normal 0 0 -1
    outer loop
      vertex 36.6059 -9.28761 0
      vertex 39.191 -13.0878 0
      vertex 38.0866 -17.1194 0
    endloop
  endfacet
  facet normal 0 0 -1
    outer loop
      vertex 39.191 -11.9122 0
      vertex 37.8164 -9.9531 0
      vertex 39.1008 -10.4616 0
    endloop
  endfacet
  facet normal 0 0 -1
    outer loop
      vertex 39.191 -13.0878 0
      vertex 36.6059 -9.28761 0
      vertex 37.8164 -9.9531 0
    endloop
  endfacet
  facet normal 0 0 -1
    outer loop
      vertex 38.0866 -17.1194 0
      vertex 35.4883 -8.47565 0
      vertex 36.6059 -9.28761 0
    endloop
  endfacet
  facet normal 0 0 -1
    outer loop
      vertex 38.0866 -17.1194 0
      vertex 34.4813 -7.53002 0
      vertex 35.4883 -8.47565 0
    endloop
  endfacet
  facet normal 0 0 -1
    outer loop
      vertex 38.0866 -17.1194 0
      vertex 33.6008 -6.46564 0
      vertex 34.4813 -7.53002 0
    endloop
  endfacet
  facet normal 0 0 -1
    outer loop
      vertex 7 -1.25 0
      vertex 33.6008 -6.46564 0
      vertex 38.0866 -17.1194 0
    endloop
  endfacet
  facet normal 0 0 -1
    outer loop
      vertex 33.6008 -6.46564 0
      vertex 7 -1.25 0
      vertex 32.8606 -5.29929 0
    endloop
  endfacet
  facet normal 0 0 -1
    outer loop
      vertex 31.5867 -1.37866 0
      vertex 7 -1.25 0
      vertex 31.5 0 0
    endloop
  endfacet
  facet normal 0 0 -1
    outer loop
      vertex 31.8456 -2.73559 0
      vertex 7 -1.25 0
      vertex 31.5867 -1.37866 0
    endloop
  endfacet
  facet normal 0 0 -1
    outer loop
      vertex 32.2725 -4.04937 0
      vertex 7 -1.25 0
      vertex 31.8456 -2.73559 0
    endloop
  endfacet
  facet normal 0 0 -1
    outer loop
      vertex 32.8606 -5.29929 0
      vertex 7 -1.25 0
      vertex 32.2725 -4.04937 0
    endloop
  endfacet
  facet normal 0 0 -1
    outer loop
      vertex -1.91342 -4.6194 0
      vertex 7 -1.25 0
      vertex 38.0866 -17.1194 0
    endloop
  endfacet
  facet normal 0 0 -1
    outer loop
      vertex -4.75136 -1.25 0
      vertex -1.91342 -4.6194 0
      vertex -3.53553 -3.53553 0
    endloop
  endfacet
  facet normal 0 0 -1
    outer loop
      vertex -4.75136 -1.25 0
      vertex -3.53553 -3.53553 0
      vertex -4.6194 -1.91342 0
    endloop
  endfacet
  facet normal 0 0 -1
    outer loop
      vertex -1.91342 -4.6194 0
      vertex -4.75136 -1.25 0
      vertex 7 -1.25 0
    endloop
  endfacet
  facet normal 0 0 -1
    outer loop
      vertex 40.309 -11.5489 0
      vertex 41.8093 -10.9783 0
      vertex 41 -12.5 0
    endloop
  endfacet
  facet normal -0 0 -1
    outer loop
      vertex 41.8093 -10.9783 0
      vertex 40.309 -11.5489 0
      vertex 40.4388 -10.8052 0
    endloop
  endfacet
  facet normal 0 0 -1
    outer loop
      vertex 39.1008 -10.4616 0
      vertex 40.309 -11.5489 0
      vertex 39.191 -11.9122 0
    endloop
  endfacet
  facet normal 0 0 -1
    outer loop
      vertex 40.309 -11.5489 0
      vertex 39.1008 -10.4616 0
      vertex 40.4388 -10.8052 0
    endloop
  endfacet
  facet normal 0 0 -1
    outer loop
      vertex 40.309 11.5489 0
      vertex 41.8093 10.9783 0
      vertex 40.4388 10.8052 0
    endloop
  endfacet
  facet normal 0 0 -1
    outer loop
      vertex 41.8093 10.9783 0
      vertex 40.309 11.5489 0
      vertex 41 12.5 0
    endloop
  endfacet
  facet normal 0 0 -1
    outer loop
      vertex 39.1008 10.4616 0
      vertex 40.309 11.5489 0
      vertex 40.4388 10.8052 0
    endloop
  endfacet
  facet normal 0 0 -1
    outer loop
      vertex 37.8164 9.9531 0
      vertex 39.191 11.9122 0
      vertex 39.1008 10.4616 0
    endloop
  endfacet
  facet normal -0 0 -1
    outer loop
      vertex 40.309 11.5489 0
      vertex 39.1008 10.4616 0
      vertex 39.191 11.9122 0
    endloop
  endfacet
  facet normal 0 0 -1
    outer loop
      vertex 44.5612 10.8052 0
      vertex 45 12.5 0
      vertex 45 10.6925 0
    endloop
  endfacet
  facet normal 0 0 -1
    outer loop
      vertex 43.1907 10.9783 0
      vertex 45 12.5 0
      vertex 44.5612 10.8052 0
    endloop
  endfacet
  facet normal 0 0 -1
    outer loop
      vertex 41 12.5 0
      vertex 45 12.5 0
      vertex 43.1907 10.9783 0
    endloop
  endfacet
  facet normal 0 0 -1
    outer loop
      vertex 45 12.5 0
      vertex 41 12.5 0
      vertex 44.6194 14.4134 0
    endloop
  endfacet
  facet normal -0 0 -1
    outer loop
      vertex 44.6194 14.4134 0
      vertex 41 12.5 0
      vertex 43.5355 16.0355 0
    endloop
  endfacet
  facet normal 0 0 -1
    outer loop
      vertex 41 12.5 0
      vertex 43.1907 10.9783 0
      vertex 41.8093 10.9783 0
    endloop
  endfacet
  facet normal 0 0 -1
    outer loop
      vertex 40.309 13.4511 0
      vertex 43.5355 16.0355 0
      vertex 41 12.5 0
    endloop
  endfacet
  facet normal -0 0 -1
    outer loop
      vertex 43.5355 16.0355 0
      vertex 40.309 13.4511 0
      vertex 41.9134 17.1194 0
    endloop
  endfacet
  facet normal 0 0 -1
    outer loop
      vertex 40.309 13.4511 0
      vertex 40 17.5 0
      vertex 41.9134 17.1194 0
    endloop
  endfacet
  facet normal 0 0 -1
    outer loop
      vertex 38.0866 17.1194 0
      vertex 40.309 13.4511 0
      vertex 39.191 13.0878 0
    endloop
  endfacet
  facet normal 0 0 -1
    outer loop
      vertex 40.309 13.4511 0
      vertex 38.0866 17.1194 0
      vertex 40 17.5 0
    endloop
  endfacet
  facet normal -0 0 -1
    outer loop
      vertex 39.191 11.9122 0
      vertex 37.8164 9.9531 0
      vertex 39.191 13.0878 0
    endloop
  endfacet
  facet normal 0 0 -1
    outer loop
      vertex 36.6059 9.28761 0
      vertex 39.191 13.0878 0
      vertex 37.8164 9.9531 0
    endloop
  endfacet
  facet normal -0 0 -1
    outer loop
      vertex 39.191 13.0878 0
      vertex 36.6059 9.28761 0
      vertex 38.0866 17.1194 0
    endloop
  endfacet
  facet normal 0 0 -1
    outer loop
      vertex 35.4883 8.47565 0
      vertex 38.0866 17.1194 0
      vertex 36.6059 9.28761 0
    endloop
  endfacet
  facet normal 0 0 -1
    outer loop
      vertex 34.4813 7.53002 0
      vertex 38.0866 17.1194 0
      vertex 35.4883 8.47565 0
    endloop
  endfacet
  facet normal 0 0 -1
    outer loop
      vertex 33.6008 6.46564 0
      vertex 38.0866 17.1194 0
      vertex 34.4813 7.53002 0
    endloop
  endfacet
  facet normal 0 0 -1
    outer loop
      vertex 7 7.40484 0
      vertex 33.6008 6.46564 0
      vertex 32.8606 5.29929 0
    endloop
  endfacet
  facet normal 0 0 -1
    outer loop
      vertex 7 7.40484 0
      vertex 32.8606 5.29929 0
      vertex 32.2725 4.04937 0
    endloop
  endfacet
  facet normal 0 0 -1
    outer loop
      vertex 7 1.25 0
      vertex 31.5 0 0
      vertex 7 -1.25 0
    endloop
  endfacet
  facet normal 0 0 -1
    outer loop
      vertex 31.5 0 0
      vertex 7 1.25 0
      vertex 31.5867 1.37866 0
    endloop
  endfacet
  facet normal 0 0 -1
    outer loop
      vertex 7 3 0
      vertex 31.5867 1.37866 0
      vertex 7 1.25 0
    endloop
  endfacet
  facet normal 0 0 -1
    outer loop
      vertex 31.5867 1.37866 0
      vertex 7 3 0
      vertex 31.8456 2.73559 0
    endloop
  endfacet
  facet normal 0 0 -1
    outer loop
      vertex 7 7.40484 0
      vertex 31.8456 2.73559 0
      vertex 7 3 0
    endloop
  endfacet
  facet normal 0 0 -1
    outer loop
      vertex 31.8456 2.73559 0
      vertex 7 7.40484 0
      vertex 32.2725 4.04937 0
    endloop
  endfacet
  facet normal 0 0 -1
    outer loop
      vertex 33.6008 6.46564 0
      vertex 7 7.40484 0
      vertex 38.0866 17.1194 0
    endloop
  endfacet
  facet normal 0 0 1
    outer loop
      vertex 41 12.5 5.1
      vertex 45 12.5 5.1
      vertex 44.6194 14.4134 5.1
    endloop
  endfacet
  facet normal 0 0 1
    outer loop
      vertex 45 12.5 5.1
      vertex 44.5612 10.8052 5.1
      vertex 45 10.6925 5.1
    endloop
  endfacet
  facet normal 0 0 1
    outer loop
      vertex 41 12.5 5.1
      vertex 44.6194 14.4134 5.1
      vertex 43.5355 16.0355 5.1
    endloop
  endfacet
  facet normal 0 0 1
    outer loop
      vertex 45 12.5 5.1
      vertex 43.1907 10.9783 5.1
      vertex 44.5612 10.8052 5.1
    endloop
  endfacet
  facet normal 0 0 1
    outer loop
      vertex 40.309 13.4511 5.1
      vertex 43.5355 16.0355 5.1
      vertex 41.9134 17.1194 5.1
    endloop
  endfacet
  facet normal 0 0 1
    outer loop
      vertex 45 12.5 5.1
      vertex 41 12.5 5.1
      vertex 43.1907 10.9783 5.1
    endloop
  endfacet
  facet normal 0 0 1
    outer loop
      vertex 43.1907 10.9783 5.1
      vertex 41 12.5 5.1
      vertex 41.8093 10.9783 5.1
    endloop
  endfacet
  facet normal 0 0 1
    outer loop
      vertex 43.5355 16.0355 5.1
      vertex 40.309 13.4511 5.1
      vertex 41 12.5 5.1
    endloop
  endfacet
  facet normal 0 0 1
    outer loop
      vertex 40 17.5 5.1
      vertex 40.309 13.4511 5.1
      vertex 41.9134 17.1194 5.1
    endloop
  endfacet
  facet normal -0 0 1
    outer loop
      vertex 38.0866 17.1194 5.1
      vertex 40.309 13.4511 5.1
      vertex 40 17.5 5.1
    endloop
  endfacet
  facet normal 0 0 1
    outer loop
      vertex 37.8164 9.9531 5.1
      vertex 39.191 11.9122 5.1
      vertex 39.191 13.0878 5.1
    endloop
  endfacet
  facet normal 0 0 1
    outer loop
      vertex 40.309 13.4511 5.1
      vertex 38.0866 17.1194 5.1
      vertex 39.191 13.0878 5.1
    endloop
  endfacet
  facet normal 0 0 1
    outer loop
      vertex 36.6059 9.28761 5.1
      vertex 39.191 13.0878 5.1
      vertex 38.0866 17.1194 5.1
    endloop
  endfacet
  facet normal 0 0 1
    outer loop
      vertex 39.191 11.9122 5.1
      vertex 37.8164 9.9531 5.1
      vertex 39.1008 10.4616 5.1
    endloop
  endfacet
  facet normal 0 0 1
    outer loop
      vertex 39.191 13.0878 5.1
      vertex 36.6059 9.28761 5.1
      vertex 37.8164 9.9531 5.1
    endloop
  endfacet
  facet normal 0 0 1
    outer loop
      vertex 38.0866 17.1194 5.1
      vertex 35.4883 8.47565 5.1
      vertex 36.6059 9.28761 5.1
    endloop
  endfacet
  facet normal 0 0 1
    outer loop
      vertex 38.0866 17.1194 5.1
      vertex 34.4813 7.53002 5.1
      vertex 35.4883 8.47565 5.1
    endloop
  endfacet
  facet normal 0 0 1
    outer loop
      vertex 38.0866 17.1194 5.1
      vertex 33.6008 6.46564 5.1
      vertex 34.4813 7.53002 5.1
    endloop
  endfacet
  facet normal -0 0 1
    outer loop
      vertex 7 7.40484 5.1
      vertex 33.6008 6.46564 5.1
      vertex 38.0866 17.1194 5.1
    endloop
  endfacet
  facet normal 0 0 1
    outer loop
      vertex 33.6008 6.46564 5.1
      vertex 7 7.40484 5.1
      vertex 32.8606 5.29929 5.1
    endloop
  endfacet
  facet normal 0 0 1
    outer loop
      vertex 31.8456 2.73559 5.1
      vertex 7 3 5.1
      vertex 31.5867 1.37866 5.1
    endloop
  endfacet
  facet normal -0 0 1
    outer loop
      vertex 7 3 5.1
      vertex 31.8456 2.73559 5.1
      vertex 7 7.40484 5.1
    endloop
  endfacet
  facet normal 0 0 1
    outer loop
      vertex 32.2725 4.04937 5.1
      vertex 7 7.40484 5.1
      vertex 31.8456 2.73559 5.1
    endloop
  endfacet
  facet normal 0 0 1
    outer loop
      vertex 32.8606 5.29929 5.1
      vertex 7 7.40484 5.1
      vertex 32.2725 4.04937 5.1
    endloop
  endfacet
  facet normal -0 0 1
    outer loop
      vertex 40.309 11.5489 5.1
      vertex 41.8093 10.9783 5.1
      vertex 41 12.5 5.1
    endloop
  endfacet
  facet normal 0 0 1
    outer loop
      vertex 41.8093 10.9783 5.1
      vertex 40.309 11.5489 5.1
      vertex 40.4388 10.8052 5.1
    endloop
  endfacet
  facet normal 0 0 1
    outer loop
      vertex 39.1008 10.4616 5.1
      vertex 40.309 11.5489 5.1
      vertex 39.191 11.9122 5.1
    endloop
  endfacet
  facet normal 0 0 1
    outer loop
      vertex 40.309 11.5489 5.1
      vertex 39.1008 10.4616 5.1
      vertex 40.4388 10.8052 5.1
    endloop
  endfacet
  facet normal -0 0 1
    outer loop
      vertex -3.89337 3 5.1
      vertex 7 1.25 5.1
      vertex 7 3 5.1
    endloop
  endfacet
  facet normal 0 0 1
    outer loop
      vertex -4.75136 1.25 5.1
      vertex -3.89337 3 5.1
      vertex -4.6194 1.91342 5.1
    endloop
  endfacet
  facet normal 0 0 1
    outer loop
      vertex -3.89337 3 5.1
      vertex -4.75136 1.25 5.1
      vertex 7 1.25 5.1
    endloop
  endfacet
  facet normal 0 0 1
    outer loop
      vertex 40.309 -11.5489 5.1
      vertex 41.8093 -10.9783 5.1
      vertex 40.4388 -10.8052 5.1
    endloop
  endfacet
  facet normal 0 0 1
    outer loop
      vertex 41.8093 -10.9783 5.1
      vertex 40.309 -11.5489 5.1
      vertex 41 -12.5 5.1
    endloop
  endfacet
  facet normal 0 0 1
    outer loop
      vertex 39.1008 -10.4616 5.1
      vertex 40.309 -11.5489 5.1
      vertex 40.4388 -10.8052 5.1
    endloop
  endfacet
  facet normal 0 0 1
    outer loop
      vertex 37.8164 -9.9531 5.1
      vertex 39.191 -11.9122 5.1
      vertex 39.1008 -10.4616 5.1
    endloop
  endfacet
  facet normal 0 0 1
    outer loop
      vertex 40.309 -11.5489 5.1
      vertex 39.1008 -10.4616 5.1
      vertex 39.191 -11.9122 5.1
    endloop
  endfacet
  facet normal -0 0 1
    outer loop
      vertex 44.5612 -10.8052 5.1
      vertex 45 -12.5 5.1
      vertex 45 -10.6925 5.1
    endloop
  endfacet
  facet normal -0 0 1
    outer loop
      vertex 43.1907 -10.9783 5.1
      vertex 45 -12.5 5.1
      vertex 44.5612 -10.8052 5.1
    endloop
  endfacet
  facet normal 0 0 1
    outer loop
      vertex 41 -12.5 5.1
      vertex 45 -12.5 5.1
      vertex 43.1907 -10.9783 5.1
    endloop
  endfacet
  facet normal 0 0 1
    outer loop
      vertex 45 -12.5 5.1
      vertex 41 -12.5 5.1
      vertex 44.6194 -14.4134 5.1
    endloop
  endfacet
  facet normal 0 0 1
    outer loop
      vertex 44.6194 -14.4134 5.1
      vertex 41 -12.5 5.1
      vertex 43.5355 -16.0355 5.1
    endloop
  endfacet
  facet normal 0 0 1
    outer loop
      vertex 41 -12.5 5.1
      vertex 43.1907 -10.9783 5.1
      vertex 41.8093 -10.9783 5.1
    endloop
  endfacet
  facet normal -0 0 1
    outer loop
      vertex 40.309 -13.4511 5.1
      vertex 43.5355 -16.0355 5.1
      vertex 41 -12.5 5.1
    endloop
  endfacet
  facet normal 0 0 1
    outer loop
      vertex 43.5355 -16.0355 5.1
      vertex 40.309 -13.4511 5.1
      vertex 41.9134 -17.1194 5.1
    endloop
  endfacet
  facet normal 0 0 1
    outer loop
      vertex 40.309 -13.4511 5.1
      vertex 40 -17.5 5.1
      vertex 41.9134 -17.1194 5.1
    endloop
  endfacet
  facet normal 0 0 1
    outer loop
      vertex 38.0866 -17.1194 5.1
      vertex 40.309 -13.4511 5.1
      vertex 39.191 -13.0878 5.1
    endloop
  endfacet
  facet normal 0 0 1
    outer loop
      vertex 40.309 -13.4511 5.1
      vertex 38.0866 -17.1194 5.1
      vertex 40 -17.5 5.1
    endloop
  endfacet
  facet normal 0 0 1
    outer loop
      vertex 39.191 -11.9122 5.1
      vertex 37.8164 -9.9531 5.1
      vertex 39.191 -13.0878 5.1
    endloop
  endfacet
  facet normal 0 0 1
    outer loop
      vertex 36.6059 -9.28761 5.1
      vertex 39.191 -13.0878 5.1
      vertex 37.8164 -9.9531 5.1
    endloop
  endfacet
  facet normal 0 0 1
    outer loop
      vertex 39.191 -13.0878 5.1
      vertex 36.6059 -9.28761 5.1
      vertex 38.0866 -17.1194 5.1
    endloop
  endfacet
  facet normal 0 0 1
    outer loop
      vertex 35.4883 -8.47565 5.1
      vertex 38.0866 -17.1194 5.1
      vertex 36.6059 -9.28761 5.1
    endloop
  endfacet
  facet normal 0 0 1
    outer loop
      vertex 34.4813 -7.53002 5.1
      vertex 38.0866 -17.1194 5.1
      vertex 35.4883 -8.47565 5.1
    endloop
  endfacet
  facet normal 0 0 1
    outer loop
      vertex 33.6008 -6.46564 5.1
      vertex 38.0866 -17.1194 5.1
      vertex 34.4813 -7.53002 5.1
    endloop
  endfacet
  facet normal 0 0 1
    outer loop
      vertex 7 -1.25 5.1
      vertex 33.6008 -6.46564 5.1
      vertex 32.8606 -5.29929 5.1
    endloop
  endfacet
  facet normal 0 0 1
    outer loop
      vertex 7 -1.25 5.1
      vertex 32.8606 -5.29929 5.1
      vertex 32.2725 -4.04937 5.1
    endloop
  endfacet
  facet normal 0 0 1
    outer loop
      vertex 7 1.25 5.1
      vertex 31.5867 1.37866 5.1
      vertex 7 3 5.1
    endloop
  endfacet
  facet normal 0 0 1
    outer loop
      vertex 31.5867 1.37866 5.1
      vertex 7 1.25 5.1
      vertex 31.5 0 5.1
    endloop
  endfacet
  facet normal 0 0 1
    outer loop
      vertex 7 -1.25 5.1
      vertex 31.5 0 5.1
      vertex 7 1.25 5.1
    endloop
  endfacet
  facet normal 0 0 1
    outer loop
      vertex 31.5 0 5.1
      vertex 7 -1.25 5.1
      vertex 31.5867 -1.37866 5.1
    endloop
  endfacet
  facet normal 0 0 1
    outer loop
      vertex 31.5867 -1.37866 5.1
      vertex 7 -1.25 5.1
      vertex 31.8456 -2.73559 5.1
    endloop
  endfacet
  facet normal 0 0 1
    outer loop
      vertex 31.8456 -2.73559 5.1
      vertex 7 -1.25 5.1
      vertex 32.2725 -4.04937 5.1
    endloop
  endfacet
  facet normal 0 0 1
    outer loop
      vertex 33.6008 -6.46564 5.1
      vertex 7 -1.25 5.1
      vertex 38.0866 -17.1194 5.1
    endloop
  endfacet
  facet normal 0 0 1
    outer loop
      vertex 7 -1.25 5.1
      vertex -1.91342 -4.6194 5.1
      vertex 38.0866 -17.1194 5.1
    endloop
  endfacet
  facet normal -0 0 1
    outer loop
      vertex -4.75136 -1.25 5.1
      vertex -1.91342 -4.6194 5.1
      vertex 7 -1.25 5.1
    endloop
  endfacet
  facet normal 0 0 1
    outer loop
      vertex -1.91342 -4.6194 5.1
      vertex -4.75136 -1.25 5.1
      vertex -3.53553 -3.53553 5.1
    endloop
  endfacet
  facet normal 0 0 1
    outer loop
      vertex -3.53553 -3.53553 5.1
      vertex -4.75136 -1.25 5.1
      vertex -4.6194 -1.91342 5.1
    endloop
  endfacet
  facet normal -0.83147 0.55557 0
    outer loop
      vertex -4.6194 1.91342 0
      vertex -3.89337 3 5.1
      vertex -3.89337 3 0
    endloop
  endfacet
  facet normal -0.83147 0.55557 0
    outer loop
      vertex -3.89337 3 5.1
      vertex -4.6194 1.91342 0
      vertex -4.6194 1.91342 5.1
    endloop
  endfacet
  facet normal 0.55557 -0.83147 0
    outer loop
      vertex 41.9134 -17.1194 0
      vertex 43.5355 -16.0355 5.1
      vertex 41.9134 -17.1194 5.1
    endloop
  endfacet
  facet normal 0.55557 -0.83147 0
    outer loop
      vertex 43.5355 -16.0355 5.1
      vertex 41.9134 -17.1194 0
      vertex 43.5355 -16.0355 0
    endloop
  endfacet
  facet normal 0.195091 0.980785 -0
    outer loop
      vertex 41.9134 17.1194 0
      vertex 40 17.5 5.1
      vertex 41.9134 17.1194 5.1
    endloop
  endfacet
  facet normal 0.195091 0.980785 0
    outer loop
      vertex 40 17.5 5.1
      vertex 41.9134 17.1194 0
      vertex 40 17.5 0
    endloop
  endfacet
  facet normal 0.55557 0.83147 -0
    outer loop
      vertex 43.5355 16.0355 0
      vertex 41.9134 17.1194 5.1
      vertex 43.5355 16.0355 5.1
    endloop
  endfacet
  facet normal 0.55557 0.83147 0
    outer loop
      vertex 41.9134 17.1194 5.1
      vertex 43.5355 16.0355 0
      vertex 41.9134 17.1194 0
    endloop
  endfacet
  facet normal -0.980785 -0.19509 0
    outer loop
      vertex -4.6194 -1.91342 0
      vertex -4.75136 -1.25 5.1
      vertex -4.75136 -1.25 0
    endloop
  endfacet
  facet normal -0.980785 -0.19509 0
    outer loop
      vertex -4.75136 -1.25 5.1
      vertex -4.6194 -1.91342 0
      vertex -4.6194 -1.91342 5.1
    endloop
  endfacet
  facet normal 0.195091 -0.980785 0
    outer loop
      vertex 40 -17.5 0
      vertex 41.9134 -17.1194 5.1
      vertex 40 -17.5 5.1
    endloop
  endfacet
  facet normal 0.195091 -0.980785 0
    outer loop
      vertex 41.9134 -17.1194 5.1
      vertex 40 -17.5 0
      vertex 41.9134 -17.1194 0
    endloop
  endfacet
  facet normal -0.195091 -0.980785 0
    outer loop
      vertex 38.0866 -17.1194 0
      vertex 40 -17.5 5.1
      vertex 38.0866 -17.1194 5.1
    endloop
  endfacet
  facet normal -0.195091 -0.980785 -0
    outer loop
      vertex 40 -17.5 5.1
      vertex 38.0866 -17.1194 0
      vertex 40 -17.5 0
    endloop
  endfacet
  facet normal -0.83147 -0.55557 0
    outer loop
      vertex -3.53553 -3.53553 0
      vertex -4.6194 -1.91342 5.1
      vertex -4.6194 -1.91342 0
    endloop
  endfacet
  facet normal -0.83147 -0.55557 0
    outer loop
      vertex -4.6194 -1.91342 5.1
      vertex -3.53553 -3.53553 0
      vertex -3.53553 -3.53553 5.1
    endloop
  endfacet
  facet normal 0.125333 -0.992115 0
    outer loop
      vertex 40.4388 10.8052 0
      vertex 41.8093 10.9783 5.1
      vertex 40.4388 10.8052 5.1
    endloop
  endfacet
  facet normal 0.125333 -0.992115 0
    outer loop
      vertex 41.8093 10.9783 5.1
      vertex 40.4388 10.8052 0
      vertex 41.8093 10.9783 0
    endloop
  endfacet
  facet normal -0.125333 0.992115 0
    outer loop
      vertex 44.5612 -10.8052 0
      vertex 43.1907 -10.9783 5.1
      vertex 44.5612 -10.8052 5.1
    endloop
  endfacet
  facet normal -0.125333 0.992115 0
    outer loop
      vertex 43.1907 -10.9783 5.1
      vertex 44.5612 -10.8052 0
      vertex 43.1907 -10.9783 0
    endloop
  endfacet
  facet normal 0.770514 -0.637424 0
    outer loop
      vertex 33.6008 6.46564 5.1
      vertex 34.4813 7.53002 0
      vertex 34.4813 7.53002 5.1
    endloop
  endfacet
  facet normal 0.770514 -0.637424 0
    outer loop
      vertex 34.4813 7.53002 0
      vertex 33.6008 6.46564 5.1
      vertex 33.6008 6.46564 0
    endloop
  endfacet
  facet normal 0.481753 -0.876307 0
    outer loop
      vertex 36.6059 9.28761 0
      vertex 37.8164 9.9531 5.1
      vertex 36.6059 9.28761 5.1
    endloop
  endfacet
  facet normal 0.481753 -0.876307 0
    outer loop
      vertex 37.8164 9.9531 5.1
      vertex 36.6059 9.28761 0
      vertex 37.8164 9.9531 0
    endloop
  endfacet
  facet normal -0.24869 -0.968583 0
    outer loop
      vertex 44.5612 10.8052 0
      vertex 45 10.6925 5.1
      vertex 44.5612 10.8052 5.1
    endloop
  endfacet
  facet normal -0.24869 -0.968583 -0
    outer loop
      vertex 45 10.6925 5.1
      vertex 44.5612 10.8052 0
      vertex 45 10.6925 0
    endloop
  endfacet
  facet normal -0.125333 -0.992115 0
    outer loop
      vertex 43.1907 10.9783 0
      vertex 44.5612 10.8052 5.1
      vertex 43.1907 10.9783 5.1
    endloop
  endfacet
  facet normal -0.125333 -0.992115 -0
    outer loop
      vertex 44.5612 10.8052 5.1
      vertex 43.1907 10.9783 0
      vertex 44.5612 10.8052 0
    endloop
  endfacet
  facet normal 0.951057 -0.309016 0
    outer loop
      vertex 31.8456 2.73559 5.1
      vertex 32.2725 4.04937 0
      vertex 32.2725 4.04937 5.1
    endloop
  endfacet
  facet normal 0.951057 -0.309016 0
    outer loop
      vertex 32.2725 4.04937 0
      vertex 31.8456 2.73559 5.1
      vertex 31.8456 2.73559 0
    endloop
  endfacet
  facet normal 0.904827 -0.42578 0
    outer loop
      vertex 32.2725 4.04937 5.1
      vertex 32.8606 5.29929 0
      vertex 32.8606 5.29929 5.1
    endloop
  endfacet
  facet normal 0.904827 -0.42578 0
    outer loop
      vertex 32.8606 5.29929 0
      vertex 32.2725 4.04937 5.1
      vertex 32.2725 4.04937 0
    endloop
  endfacet
  facet normal 0.982287 -0.187381 0
    outer loop
      vertex 31.5867 1.37866 5.1
      vertex 31.8456 2.73559 0
      vertex 31.8456 2.73559 5.1
    endloop
  endfacet
  facet normal 0.982287 -0.187381 0
    outer loop
      vertex 31.8456 2.73559 0
      vertex 31.5867 1.37866 5.1
      vertex 31.5867 1.37866 0
    endloop
  endfacet
  facet normal 0.684548 -0.728968 0
    outer loop
      vertex 34.4813 7.53002 0
      vertex 35.4883 8.47565 5.1
      vertex 34.4813 7.53002 5.1
    endloop
  endfacet
  facet normal 0.684548 -0.728968 0
    outer loop
      vertex 35.4883 8.47565 5.1
      vertex 34.4813 7.53002 0
      vertex 35.4883 8.47565 0
    endloop
  endfacet
  facet normal 0.368124 -0.929777 0
    outer loop
      vertex 37.8164 9.9531 0
      vertex 39.1008 10.4616 5.1
      vertex 37.8164 9.9531 5.1
    endloop
  endfacet
  facet normal 0.368124 -0.929777 0
    outer loop
      vertex 39.1008 10.4616 5.1
      vertex 37.8164 9.9531 0
      vertex 39.1008 10.4616 0
    endloop
  endfacet
  facet normal -0.24869 0.968583 0
    outer loop
      vertex 45 -10.6925 0
      vertex 44.5612 -10.8052 5.1
      vertex 45 -10.6925 5.1
    endloop
  endfacet
  facet normal -0.24869 0.968583 0
    outer loop
      vertex 44.5612 -10.8052 5.1
      vertex 45 -10.6925 0
      vertex 44.5612 -10.8052 0
    endloop
  endfacet
  facet normal 0 -1 0
    outer loop
      vertex 41.8093 10.9783 0
      vertex 43.1907 10.9783 5.1
      vertex 41.8093 10.9783 5.1
    endloop
  endfacet
  facet normal 0 -1 -0
    outer loop
      vertex 43.1907 10.9783 5.1
      vertex 41.8093 10.9783 0
      vertex 43.1907 10.9783 0
    endloop
  endfacet
  facet normal 0.844327 -0.535828 0
    outer loop
      vertex 32.8606 5.29929 5.1
      vertex 33.6008 6.46564 0
      vertex 33.6008 6.46564 5.1
    endloop
  endfacet
  facet normal 0.844327 -0.535828 0
    outer loop
      vertex 33.6008 6.46564 0
      vertex 32.8606 5.29929 5.1
      vertex 32.8606 5.29929 0
    endloop
  endfacet
  facet normal 0.998027 -0.0627908 0
    outer loop
      vertex 31.5 0 5.1
      vertex 31.5867 1.37866 0
      vertex 31.5867 1.37866 5.1
    endloop
  endfacet
  facet normal 0.998027 -0.0627908 0
    outer loop
      vertex 31.5867 1.37866 0
      vertex 31.5 0 5.1
      vertex 31.5 0 0
    endloop
  endfacet
  facet normal 0.587785 -0.809017 0
    outer loop
      vertex 35.4883 8.47565 0
      vertex 36.6059 9.28761 5.1
      vertex 35.4883 8.47565 5.1
    endloop
  endfacet
  facet normal 0.587785 -0.809017 0
    outer loop
      vertex 36.6059 9.28761 5.1
      vertex 35.4883 8.47565 0
      vertex 36.6059 9.28761 0
    endloop
  endfacet
  facet normal 0.24869 -0.968583 0
    outer loop
      vertex 39.1008 10.4616 0
      vertex 40.4388 10.8052 5.1
      vertex 39.1008 10.4616 5.1
    endloop
  endfacet
  facet normal 0.24869 -0.968583 0
    outer loop
      vertex 40.4388 10.8052 5.1
      vertex 39.1008 10.4616 0
      vertex 40.4388 10.8052 0
    endloop
  endfacet
  facet normal 0.24869 0.968583 -0
    outer loop
      vertex 40.4388 -10.8052 0
      vertex 39.1008 -10.4616 5.1
      vertex 40.4388 -10.8052 5.1
    endloop
  endfacet
  facet normal 0.24869 0.968583 0
    outer loop
      vertex 39.1008 -10.4616 5.1
      vertex 40.4388 -10.8052 0
      vertex 39.1008 -10.4616 0
    endloop
  endfacet
  facet normal 0.998027 0.0627908 0
    outer loop
      vertex 31.5867 -1.37866 5.1
      vertex 31.5 0 0
      vertex 31.5 0 5.1
    endloop
  endfacet
  facet normal 0.998027 0.0627908 0
    outer loop
      vertex 31.5 0 0
      vertex 31.5867 -1.37866 5.1
      vertex 31.5867 -1.37866 0
    endloop
  endfacet
  facet normal 0.684548 0.728968 -0
    outer loop
      vertex 35.4883 -8.47565 0
      vertex 34.4813 -7.53002 5.1
      vertex 35.4883 -8.47565 5.1
    endloop
  endfacet
  facet normal 0.684548 0.728968 0
    outer loop
      vertex 34.4813 -7.53002 5.1
      vertex 35.4883 -8.47565 0
      vertex 34.4813 -7.53002 0
    endloop
  endfacet
  facet normal 0.904827 0.42578 0
    outer loop
      vertex 32.8606 -5.29929 5.1
      vertex 32.2725 -4.04937 0
      vertex 32.2725 -4.04937 5.1
    endloop
  endfacet
  facet normal 0.904827 0.42578 0
    outer loop
      vertex 32.2725 -4.04937 0
      vertex 32.8606 -5.29929 5.1
      vertex 32.8606 -5.29929 0
    endloop
  endfacet
  facet normal 0 1 -0
    outer loop
      vertex 43.1907 -10.9783 0
      vertex 41.8093 -10.9783 5.1
      vertex 43.1907 -10.9783 5.1
    endloop
  endfacet
  facet normal 0 1 0
    outer loop
      vertex 41.8093 -10.9783 5.1
      vertex 43.1907 -10.9783 0
      vertex 41.8093 -10.9783 0
    endloop
  endfacet
  facet normal 0.368124 0.929777 -0
    outer loop
      vertex 39.1008 -10.4616 0
      vertex 37.8164 -9.9531 5.1
      vertex 39.1008 -10.4616 5.1
    endloop
  endfacet
  facet normal 0.368124 0.929777 0
    outer loop
      vertex 37.8164 -9.9531 5.1
      vertex 39.1008 -10.4616 0
      vertex 37.8164 -9.9531 0
    endloop
  endfacet
  facet normal 0.125333 0.992115 -0
    outer loop
      vertex 41.8093 -10.9783 0
      vertex 40.4388 -10.8052 5.1
      vertex 41.8093 -10.9783 5.1
    endloop
  endfacet
  facet normal 0.125333 0.992115 0
    outer loop
      vertex 40.4388 -10.8052 5.1
      vertex 41.8093 -10.9783 0
      vertex 40.4388 -10.8052 0
    endloop
  endfacet
  facet normal 0.770514 0.637424 0
    outer loop
      vertex 34.4813 -7.53002 5.1
      vertex 33.6008 -6.46564 0
      vertex 33.6008 -6.46564 5.1
    endloop
  endfacet
  facet normal 0.770514 0.637424 0
    outer loop
      vertex 33.6008 -6.46564 0
      vertex 34.4813 -7.53002 5.1
      vertex 34.4813 -7.53002 0
    endloop
  endfacet
  facet normal 0.844327 0.535828 0
    outer loop
      vertex 33.6008 -6.46564 5.1
      vertex 32.8606 -5.29929 0
      vertex 32.8606 -5.29929 5.1
    endloop
  endfacet
  facet normal 0.844327 0.535828 0
    outer loop
      vertex 32.8606 -5.29929 0
      vertex 33.6008 -6.46564 5.1
      vertex 33.6008 -6.46564 0
    endloop
  endfacet
  facet normal 0.951057 0.309016 0
    outer loop
      vertex 32.2725 -4.04937 5.1
      vertex 31.8456 -2.73559 0
      vertex 31.8456 -2.73559 5.1
    endloop
  endfacet
  facet normal 0.951057 0.309016 0
    outer loop
      vertex 31.8456 -2.73559 0
      vertex 32.2725 -4.04937 5.1
      vertex 32.2725 -4.04937 0
    endloop
  endfacet
  facet normal 0.982287 0.187381 0
    outer loop
      vertex 31.8456 -2.73559 5.1
      vertex 31.5867 -1.37866 0
      vertex 31.5867 -1.37866 5.1
    endloop
  endfacet
  facet normal 0.982287 0.187381 0
    outer loop
      vertex 31.5867 -1.37866 0
      vertex 31.8456 -2.73559 5.1
      vertex 31.8456 -2.73559 0
    endloop
  endfacet
  facet normal 0.481753 0.876307 -0
    outer loop
      vertex 37.8164 -9.9531 0
      vertex 36.6059 -9.28761 5.1
      vertex 37.8164 -9.9531 5.1
    endloop
  endfacet
  facet normal 0.481753 0.876307 0
    outer loop
      vertex 36.6059 -9.28761 5.1
      vertex 37.8164 -9.9531 0
      vertex 36.6059 -9.28761 0
    endloop
  endfacet
  facet normal 0.587785 0.809017 -0
    outer loop
      vertex 36.6059 -9.28761 0
      vertex 35.4883 -8.47565 5.1
      vertex 36.6059 -9.28761 5.1
    endloop
  endfacet
  facet normal 0.587785 0.809017 0
    outer loop
      vertex 35.4883 -8.47565 5.1
      vertex 36.6059 -9.28761 0
      vertex 35.4883 -8.47565 0
    endloop
  endfacet
  facet normal -0.809017 -0.587785 0
    outer loop
      vertex 41 12.5 0
      vertex 40.309 13.4511 5.1
      vertex 40.309 13.4511 0
    endloop
  endfacet
  facet normal -0.809017 -0.587785 0
    outer loop
      vertex 40.309 13.4511 5.1
      vertex 41 12.5 0
      vertex 41 12.5 5.1
    endloop
  endfacet
  facet normal 1 -0 0
    outer loop
      vertex 39.191 11.9122 5.1
      vertex 39.191 13.0878 0
      vertex 39.191 13.0878 5.1
    endloop
  endfacet
  facet normal 1 0 0
    outer loop
      vertex 39.191 13.0878 0
      vertex 39.191 11.9122 5.1
      vertex 39.191 11.9122 0
    endloop
  endfacet
  facet normal 0.309017 -0.951056 0
    outer loop
      vertex 39.191 13.0878 0
      vertex 40.309 13.4511 5.1
      vertex 39.191 13.0878 5.1
    endloop
  endfacet
  facet normal 0.309017 -0.951056 0
    outer loop
      vertex 40.309 13.4511 5.1
      vertex 39.191 13.0878 0
      vertex 40.309 13.4511 0
    endloop
  endfacet
  facet normal 0.309017 0.951056 -0
    outer loop
      vertex 40.309 11.5489 0
      vertex 39.191 11.9122 5.1
      vertex 40.309 11.5489 5.1
    endloop
  endfacet
  facet normal 0.309017 0.951056 0
    outer loop
      vertex 39.191 11.9122 5.1
      vertex 40.309 11.5489 0
      vertex 39.191 11.9122 0
    endloop
  endfacet
  facet normal -0.809017 0.587785 0
    outer loop
      vertex 40.309 11.5489 0
      vertex 41 12.5 5.1
      vertex 41 12.5 0
    endloop
  endfacet
  facet normal -0.809017 0.587785 0
    outer loop
      vertex 41 12.5 5.1
      vertex 40.309 11.5489 0
      vertex 40.309 11.5489 5.1
    endloop
  endfacet
  facet normal -0.809017 -0.587785 0
    outer loop
      vertex 41 -12.5 0
      vertex 40.309 -11.5489 5.1
      vertex 40.309 -11.5489 0
    endloop
  endfacet
  facet normal -0.809017 -0.587785 0
    outer loop
      vertex 40.309 -11.5489 5.1
      vertex 41 -12.5 0
      vertex 41 -12.5 5.1
    endloop
  endfacet
  facet normal 1 -0 0
    outer loop
      vertex 39.191 -13.0878 5.1
      vertex 39.191 -11.9122 0
      vertex 39.191 -11.9122 5.1
    endloop
  endfacet
  facet normal 1 0 0
    outer loop
      vertex 39.191 -11.9122 0
      vertex 39.191 -13.0878 5.1
      vertex 39.191 -13.0878 0
    endloop
  endfacet
  facet normal 0.309017 -0.951056 0
    outer loop
      vertex 39.191 -11.9122 0
      vertex 40.309 -11.5489 5.1
      vertex 39.191 -11.9122 5.1
    endloop
  endfacet
  facet normal 0.309017 -0.951056 0
    outer loop
      vertex 40.309 -11.5489 5.1
      vertex 39.191 -11.9122 0
      vertex 40.309 -11.5489 0
    endloop
  endfacet
  facet normal 0.309017 0.951056 -0
    outer loop
      vertex 40.309 -13.4511 0
      vertex 39.191 -13.0878 5.1
      vertex 40.309 -13.4511 5.1
    endloop
  endfacet
  facet normal 0.309017 0.951056 0
    outer loop
      vertex 39.191 -13.0878 5.1
      vertex 40.309 -13.4511 0
      vertex 39.191 -13.0878 0
    endloop
  endfacet
  facet normal -0.809017 0.587785 0
    outer loop
      vertex 40.309 -13.4511 0
      vertex 41 -12.5 5.1
      vertex 41 -12.5 0
    endloop
  endfacet
  facet normal -0.809017 0.587785 0
    outer loop
      vertex 41 -12.5 5.1
      vertex 40.309 -13.4511 0
      vertex 40.309 -13.4511 5.1
    endloop
  endfacet
  facet normal -1 0 0
    outer loop
      vertex 7 -1.25 0
      vertex 7 1.25 5.1
      vertex 7 1.25 0
    endloop
  endfacet
  facet normal -1 -0 0
    outer loop
      vertex 7 1.25 5.1
      vertex 7 -1.25 0
      vertex 7 -1.25 5.1
    endloop
  endfacet
  facet normal 0 1 0
    outer loop
      vertex 7 -1.25 5.1
      vertex 1.30902 -1.25 3.45106
      vertex -4.75136 -1.25 5.1
    endloop
  endfacet
  facet normal 0 1 0
    outer loop
      vertex 7 -1.25 5.1
      vertex 2 -1.25 2.5
      vertex 1.30902 -1.25 3.45106
    endloop
  endfacet
  facet normal 0 1 -0
    outer loop
      vertex 7 -1.25 0
      vertex 2 -1.25 2.5
      vertex 7 -1.25 5.1
    endloop
  endfacet
  facet normal 0 1 0
    outer loop
      vertex 2 -1.25 2.5
      vertex 7 -1.25 0
      vertex 1.30902 -1.25 1.54894
    endloop
  endfacet
  facet normal 0 1 -0
    outer loop
      vertex 0.190983 -1.25 3.08778
      vertex -4.75136 -1.25 5.1
      vertex 1.30902 -1.25 3.45106
    endloop
  endfacet
  facet normal 0 1 0
    outer loop
      vertex -4.75136 -1.25 0
      vertex 0.190983 -1.25 3.08778
      vertex 0.190983 -1.25 1.91221
    endloop
  endfacet
  facet normal 0 1 0
    outer loop
      vertex 0.190983 -1.25 3.08778
      vertex -4.75136 -1.25 0
      vertex -4.75136 -1.25 5.1
    endloop
  endfacet
  facet normal 0 1 0
    outer loop
      vertex 1.30902 -1.25 1.54894
      vertex -4.75136 -1.25 0
      vertex 0.190983 -1.25 1.91221
    endloop
  endfacet
  facet normal 0 1 0
    outer loop
      vertex -4.75136 -1.25 0
      vertex 1.30902 -1.25 1.54894
      vertex 7 -1.25 0
    endloop
  endfacet
  facet normal 0 -1 0
    outer loop
      vertex -4.75136 1.25 5.1
      vertex 1.30902 1.25 3.45106
      vertex 7 1.25 5.1
    endloop
  endfacet
  facet normal 0 -1 0
    outer loop
      vertex -4.75136 1.25 5.1
      vertex 0.190983 1.25 3.08778
      vertex 1.30902 1.25 3.45106
    endloop
  endfacet
  facet normal 0 -1 0
    outer loop
      vertex -4.75136 1.25 0
      vertex 0.190983 1.25 3.08778
      vertex -4.75136 1.25 5.1
    endloop
  endfacet
  facet normal 0 -1 -0
    outer loop
      vertex 0.190983 1.25 1.91221
      vertex -4.75136 1.25 0
      vertex 1.30902 1.25 1.54894
    endloop
  endfacet
  facet normal 0 -1 -0
    outer loop
      vertex 0.190983 1.25 3.08778
      vertex -4.75136 1.25 0
      vertex 0.190983 1.25 1.91221
    endloop
  endfacet
  facet normal 0 -1 0
    outer loop
      vertex 2 1.25 2.5
      vertex 7 1.25 5.1
      vertex 1.30902 1.25 3.45106
    endloop
  endfacet
  facet normal 0 -1 0
    outer loop
      vertex 7 1.25 0
      vertex 2 1.25 2.5
      vertex 1.30902 1.25 1.54894
    endloop
  endfacet
  facet normal 0 -1 0
    outer loop
      vertex 2 1.25 2.5
      vertex 7 1.25 0
      vertex 7 1.25 5.1
    endloop
  endfacet
  facet normal 0 -1 0
    outer loop
      vertex 7 1.25 0
      vertex 1.30902 1.25 1.54894
      vertex -4.75136 1.25 0
    endloop
  endfacet
  facet normal -1 0 0
    outer loop
      vertex 7 3 0
      vertex 7 7.40484 5.1
      vertex 7 7.40484 0
    endloop
  endfacet
  facet normal -1 -0 0
    outer loop
      vertex 7 7.40484 5.1
      vertex 7 3 0
      vertex 7 3 5.1
    endloop
  endfacet
  facet normal 0 1 0
    outer loop
      vertex 7 3 5.1
      vertex 1.30902 3 3.45106
      vertex -3.89337 3 5.1
    endloop
  endfacet
  facet normal 0 1 0
    outer loop
      vertex 7 3 5.1
      vertex 2 3 2.5
      vertex 1.30902 3 3.45106
    endloop
  endfacet
  facet normal 0 1 -0
    outer loop
      vertex 7 3 0
      vertex 2 3 2.5
      vertex 7 3 5.1
    endloop
  endfacet
  facet normal 0 1 0
    outer loop
      vertex 2 3 2.5
      vertex 7 3 0
      vertex 1.30902 3 1.54894
    endloop
  endfacet
  facet normal 0 1 -0
    outer loop
      vertex 0.190983 3 3.08778
      vertex -3.89337 3 5.1
      vertex 1.30902 3 3.45106
    endloop
  endfacet
  facet normal 0 1 0
    outer loop
      vertex -3.89337 3 0
      vertex 0.190983 3 3.08778
      vertex 0.190983 3 1.91221
    endloop
  endfacet
  facet normal 0 1 0
    outer loop
      vertex 0.190983 3 3.08778
      vertex -3.89337 3 0
      vertex -3.89337 3 5.1
    endloop
  endfacet
  facet normal 0 1 0
    outer loop
      vertex 1.30902 3 1.54894
      vertex -3.89337 3 0
      vertex 0.190983 3 1.91221
    endloop
  endfacet
  facet normal 0 1 0
    outer loop
      vertex -3.89337 3 0
      vertex 1.30902 3 1.54894
      vertex 7 3 0
    endloop
  endfacet
  facet normal -0.809017 0 -0.587786
    outer loop
      vertex 2 1.25 2.5
      vertex 1.30902 3 3.45106
      vertex 2 3 2.5
    endloop
  endfacet
  facet normal -0.809017 -0 -0.587786
    outer loop
      vertex 1.30902 3 3.45106
      vertex 2 1.25 2.5
      vertex 1.30902 1.25 3.45106
    endloop
  endfacet
  facet normal -0.809017 0 -0.587786
    outer loop
      vertex 2 -1.25 2.5
      vertex 1.30902 -5.62641 3.45106
      vertex 1.30902 -1.25 3.45106
    endloop
  endfacet
  facet normal -0.809017 0 -0.587786
    outer loop
      vertex 1.30902 -5.62641 3.45106
      vertex 2 -1.25 2.5
      vertex 2 -5.84234 2.5
    endloop
  endfacet
  facet normal 0.309017 0 -0.951056
    outer loop
      vertex 0.190983 1.25 3.08778
      vertex 1.30902 3 3.45106
      vertex 1.30902 1.25 3.45106
    endloop
  endfacet
  facet normal 0.309017 0 -0.951056
    outer loop
      vertex 1.30902 3 3.45106
      vertex 0.190983 1.25 3.08778
      vertex 0.190983 3 3.08778
    endloop
  endfacet
  facet normal 0.309017 0 -0.951056
    outer loop
      vertex 0.190983 -5.27702 3.08778
      vertex 1.30902 -1.25 3.45106
      vertex 1.30902 -5.62641 3.45106
    endloop
  endfacet
  facet normal 0.309017 0 -0.951056
    outer loop
      vertex 1.30902 -1.25 3.45106
      vertex 0.190983 -5.27702 3.08778
      vertex 0.190983 -1.25 3.08778
    endloop
  endfacet
  facet normal 1 -0 0
    outer loop
      vertex 0.190983 1.25 3.08778
      vertex 0.190983 3 1.91221
      vertex 0.190983 3 3.08778
    endloop
  endfacet
  facet normal 1 0 0
    outer loop
      vertex 0.190983 3 1.91221
      vertex 0.190983 1.25 3.08778
      vertex 0.190983 1.25 1.91221
    endloop
  endfacet
  facet normal 1 -0 0
    outer loop
      vertex 0.190983 -5.27702 3.08778
      vertex 0.190983 -1.25 1.91221
      vertex 0.190983 -1.25 3.08778
    endloop
  endfacet
  facet normal 1 0 0
    outer loop
      vertex 0.190983 -1.25 1.91221
      vertex 0.190983 -5.27702 3.08778
      vertex 0.190983 -5.27702 1.91221
    endloop
  endfacet
  facet normal 0.309017 0 0.951056
    outer loop
      vertex 0.190983 3 1.91221
      vertex 1.30902 1.25 1.54894
      vertex 1.30902 3 1.54894
    endloop
  endfacet
  facet normal 0.309017 0 0.951056
    outer loop
      vertex 1.30902 1.25 1.54894
      vertex 0.190983 3 1.91221
      vertex 0.190983 1.25 1.91221
    endloop
  endfacet
  facet normal 0.309017 -0 0.951056
    outer loop
      vertex 0.190983 -5.27702 1.91221
      vertex 1.30902 -1.25 1.54894
      vertex 0.190983 -1.25 1.91221
    endloop
  endfacet
  facet normal 0.309017 0 0.951056
    outer loop
      vertex 1.30902 -1.25 1.54894
      vertex 0.190983 -5.27702 1.91221
      vertex 1.30902 -5.62641 1.54894
    endloop
  endfacet
  facet normal -0.809017 0 0.587785
    outer loop
      vertex 1.30902 1.25 1.54894
      vertex 2 3 2.5
      vertex 1.30902 3 1.54894
    endloop
  endfacet
  facet normal -0.809017 0 0.587785
    outer loop
      vertex 2 3 2.5
      vertex 1.30902 1.25 1.54894
      vertex 2 1.25 2.5
    endloop
  endfacet
  facet normal -0.809017 0 0.587785
    outer loop
      vertex 1.30902 -5.62641 1.54894
      vertex 2 -1.25 2.5
      vertex 1.30902 -1.25 1.54894
    endloop
  endfacet
  facet normal -0.809017 0 0.587785
    outer loop
      vertex 2 -1.25 2.5
      vertex 1.30902 -5.62641 1.54894
      vertex 2 -5.84234 2.5
    endloop
  endfacet
endsolid OpenSCAD_Model
